<?xml version="1.0" encoding="UTF-8" standalone="no"?>
<!-- Created with Inkscape (http://www.inkscape.org/) -->

<svg
   xmlns:dc="http://purl.org/dc/elements/1.1/"
   xmlns:cc="http://creativecommons.org/ns#"
   xmlns:rdf="http://www.w3.org/1999/02/22-rdf-syntax-ns#"
   xmlns:svg="http://www.w3.org/2000/svg"
   xmlns="http://www.w3.org/2000/svg"
   xmlns:sodipodi="http://sodipodi.sourceforge.net/DTD/sodipodi-0.dtd"
   xmlns:inkscape="http://www.inkscape.org/namespaces/inkscape"
   width="32"
   height="32.000011"
   id="svg3044"
   version="1.1"
   inkscape:version="0.48.5 r10040"
   sodipodi:docname="menu_icon.svg">
  <defs
     id="defs3046" />
  <sodipodi:namedview
     id="base"
     pagecolor="#ffffff"
     bordercolor="#666666"
     borderopacity="1.0"
     inkscape:pageopacity="0.0"
     inkscape:pageshadow="2"
     inkscape:zoom="12.839846"
     inkscape:cx="32.542592"
     inkscape:cy="11.989551"
     inkscape:document-units="px"
     inkscape:current-layer="layer1"
     showgrid="false"
     showguides="true"
     inkscape:guide-bbox="true"
     inkscape:snap-bbox="true"
     inkscape:snap-bbox-edge-midpoints="true"
     inkscape:object-paths="true"
     inkscape:snap-page="true"
     inkscape:window-width="1366"
     inkscape:window-height="705"
     inkscape:window-x="-8"
     inkscape:window-y="-8"
     inkscape:window-maximized="1"
     fit-margin-top="1"
     fit-margin-left="1"
     fit-margin-right="1"
     fit-margin-bottom="1">
    <sodipodi:guide
       orientation="0,1"
       position="81,846.71423"
       id="guide3054" />
    <sodipodi:guide
       orientation="0,1"
       position="81,800.99994"
       id="guide3058" />
    <sodipodi:guide
       orientation="0,1"
       position="256.77973,921.16351"
       id="guide3080" />
    <sodipodi:guide
       orientation="1,0"
       position="58.142857,823.85709"
       id="guide3117" />
  </sodipodi:namedview>
  <metadata
     id="metadata3049">
    <rdf:RDF>
      <cc:Work
         rdf:about="">
        <dc:format>image/svg+xml</dc:format>
        <dc:type
           rdf:resource="http://purl.org/dc/dcmitype/StillImage" />
        <dc:title />
      </cc:Work>
    </rdf:RDF>
  </metadata>
  <g
     inkscape:label="Capa 1"
     inkscape:groupmode="layer"
     id="layer1"
     transform="translate(1.0000001,-1021.3622)">
    <path
       sodipodi:type="arc"
       style="color:#000000;fill:#ffffff;fill-opacity:1;fill-rule:nonzero;stroke:none;stroke-width:7;marker:none;visibility:visible;display:inline;overflow:visible;enable-background:accumulate"
       id="path3052"
       sodipodi:cx="80"
       sodipodi:cy="229.50504"
       sodipodi:rx="22.857143"
       sodipodi:ry="22.857143"
       d="m 102.85714,229.50504 c 0,12.62365 -10.233488,22.85714 -22.85714,22.85714 -12.623652,0 -22.857143,-10.23349 -22.857143,-22.85714 0,-12.62366 10.233491,-22.85715 22.857143,-22.85715 12.623652,0 22.85714,10.23349 22.85714,22.85715 z"
       transform="matrix(0.13125298,0,0,0.13125292,-7.4786437,995.23908)" />
    <path
       d="m 102.85714,229.50504 c 0,12.62365 -10.233488,22.85714 -22.85714,22.85714 -12.623652,0 -22.857143,-10.23349 -22.857143,-22.85714 0,-12.62366 10.233491,-22.85715 22.857143,-22.85715 12.623652,0 22.85714,10.23349 22.85714,22.85715 z"
       sodipodi:ry="22.857143"
       sodipodi:rx="22.857143"
       sodipodi:cy="229.50504"
       sodipodi:cx="80"
       id="path3140"
       style="color:#000000;fill:#ffffff;fill-opacity:1;fill-rule:nonzero;stroke:none;stroke-width:7;marker:none;visibility:visible;display:inline;overflow:visible;enable-background:accumulate"
       sodipodi:type="arc"
       transform="matrix(0.13125298,0,0,0.13125292,-7.4786437,995.23908)" />
    <path
       d="m 102.85714,229.50504 c 0,12.62365 -10.233488,22.85714 -22.85714,22.85714 -12.623652,0 -22.857143,-10.23349 -22.857143,-22.85714 0,-12.62366 10.233491,-22.85715 22.857143,-22.85715 12.623652,0 22.85714,10.23349 22.85714,22.85715 z"
       sodipodi:ry="22.857143"
       sodipodi:rx="22.857143"
       sodipodi:cy="229.50504"
       sodipodi:cx="80"
       id="path3144"
       style="color:#000000;fill:#ffffff;fill-opacity:1;fill-rule:nonzero;stroke:none;stroke-width:7;marker:none;visibility:visible;display:inline;overflow:visible;enable-background:accumulate"
       sodipodi:type="arc"
       transform="matrix(0.13125298,0,0,0.13125292,-7.4786437,995.23908)" />
    <path
       sodipodi:type="arc"
       style="color:#000000;fill:#ffffff;fill-opacity:1;fill-rule:nonzero;stroke:none;stroke-width:7;marker:none;visibility:visible;display:inline;overflow:visible;enable-background:accumulate"
       id="path3148"
       sodipodi:cx="80"
       sodipodi:cy="229.50504"
       sodipodi:rx="22.857143"
       sodipodi:ry="22.857143"
       d="m 102.85714,229.50504 c 0,12.62365 -10.233488,22.85714 -22.85714,22.85714 -12.623652,0 -22.857143,-10.23349 -22.857143,-22.85714 0,-12.62366 10.233491,-22.85715 22.857143,-22.85715 12.623652,0 22.85714,10.23349 22.85714,22.85715 z"
       transform="matrix(0.13125298,0,0,0.13125292,-7.4786437,995.23908)" />
    <path
       sodipodi:type="arc"
       style="color:#000000;fill:#ffffff;fill-opacity:1;fill-rule:nonzero;stroke:none;stroke-width:7;marker:none;visibility:visible;display:inline;overflow:visible;enable-background:accumulate"
       id="path3052-8"
       sodipodi:cx="80"
       sodipodi:cy="229.50504"
       sodipodi:rx="22.857143"
       sodipodi:ry="22.857143"
       d="m 102.85714,229.50504 c 0,12.62365 -10.233488,22.85714 -22.85714,22.85714 -12.623652,0 -22.857143,-10.23349 -22.857143,-22.85714 0,-12.62366 10.233491,-22.85715 22.857143,-22.85715 12.623652,0 22.85714,10.23349 22.85714,22.85715 z"
       transform="matrix(0.13125298,0,0,0.13125292,-7.5001703,1007.2393)" />
    <path
       d="m 102.85714,229.50504 c 0,12.62365 -10.233488,22.85714 -22.85714,22.85714 -12.623652,0 -22.857143,-10.23349 -22.857143,-22.85714 0,-12.62366 10.233491,-22.85715 22.857143,-22.85715 12.623652,0 22.85714,10.23349 22.85714,22.85715 z"
       sodipodi:ry="22.857143"
       sodipodi:rx="22.857143"
       sodipodi:cy="229.50504"
       sodipodi:cx="80"
       id="path3140-0"
       style="color:#000000;fill:#ffffff;fill-opacity:1;fill-rule:nonzero;stroke:none;stroke-width:7;marker:none;visibility:visible;display:inline;overflow:visible;enable-background:accumulate"
       sodipodi:type="arc"
       transform="matrix(0.13125298,0,0,0.13125292,-7.5001703,1007.2393)" />
    <path
       d="m 102.85714,229.50504 c 0,12.62365 -10.233488,22.85714 -22.85714,22.85714 -12.623652,0 -22.857143,-10.23349 -22.857143,-22.85714 0,-12.62366 10.233491,-22.85715 22.857143,-22.85715 12.623652,0 22.85714,10.23349 22.85714,22.85715 z"
       sodipodi:ry="22.857143"
       sodipodi:rx="22.857143"
       sodipodi:cy="229.50504"
       sodipodi:cx="80"
       id="path3144-6"
       style="color:#000000;fill:#ffffff;fill-opacity:1;fill-rule:nonzero;stroke:none;stroke-width:7;marker:none;visibility:visible;display:inline;overflow:visible;enable-background:accumulate"
       sodipodi:type="arc"
       transform="matrix(0.13125298,0,0,0.13125292,-7.5001703,1007.2393)" />
    <path
       sodipodi:type="arc"
       style="color:#000000;fill:#ffffff;fill-opacity:1;fill-rule:nonzero;stroke:none;stroke-width:7;marker:none;visibility:visible;display:inline;overflow:visible;enable-background:accumulate"
       id="path3148-6"
       sodipodi:cx="80"
       sodipodi:cy="229.50504"
       sodipodi:rx="22.857143"
       sodipodi:ry="22.857143"
       d="m 102.85714,229.50504 c 0,12.62365 -10.233488,22.85714 -22.85714,22.85714 -12.623652,0 -22.857143,-10.23349 -22.857143,-22.85714 0,-12.62366 10.233491,-22.85715 22.857143,-22.85715 12.623652,0 22.85714,10.23349 22.85714,22.85715 z"
       transform="matrix(0.13125298,0,0,0.13125292,-7.5001703,1007.2393)" />
    <path
       sodipodi:type="arc"
       style="color:#000000;fill:#ffffff;fill-opacity:1;fill-rule:nonzero;stroke:none;stroke-width:7;marker:none;visibility:visible;display:inline;overflow:visible;enable-background:accumulate"
       id="path3052-5"
       sodipodi:cx="80"
       sodipodi:cy="229.50504"
       sodipodi:rx="22.857143"
       sodipodi:ry="22.857143"
       d="m 102.85714,229.50504 c 0,12.62365 -10.233488,22.85714 -22.85714,22.85714 -12.623652,0 -22.857143,-10.23349 -22.857143,-22.85714 0,-12.62366 10.233491,-22.85715 22.857143,-22.85715 12.623652,0 22.85714,10.23349 22.85714,22.85715 z"
       transform="matrix(0.13125298,0,0,0.13125292,-7.4990034,1019.2388)" />
    <path
       d="m 102.85714,229.50504 c 0,12.62365 -10.233488,22.85714 -22.85714,22.85714 -12.623652,0 -22.857143,-10.23349 -22.857143,-22.85714 0,-12.62366 10.233491,-22.85715 22.857143,-22.85715 12.623652,0 22.85714,10.23349 22.85714,22.85715 z"
       sodipodi:ry="22.857143"
       sodipodi:rx="22.857143"
       sodipodi:cy="229.50504"
       sodipodi:cx="80"
       id="path3140-2"
       style="color:#000000;fill:#ffffff;fill-opacity:1;fill-rule:nonzero;stroke:none;stroke-width:7;marker:none;visibility:visible;display:inline;overflow:visible;enable-background:accumulate"
       sodipodi:type="arc"
       transform="matrix(0.13125298,0,0,0.13125292,-7.4990034,1019.2388)" />
    <path
       d="m 102.85714,229.50504 c 0,12.62365 -10.233488,22.85714 -22.85714,22.85714 -12.623652,0 -22.857143,-10.23349 -22.857143,-22.85714 0,-12.62366 10.233491,-22.85715 22.857143,-22.85715 12.623652,0 22.85714,10.23349 22.85714,22.85715 z"
       sodipodi:ry="22.857143"
       sodipodi:rx="22.857143"
       sodipodi:cy="229.50504"
       sodipodi:cx="80"
       id="path3144-0"
       style="color:#000000;fill:#ffffff;fill-opacity:1;fill-rule:nonzero;stroke:none;stroke-width:7;marker:none;visibility:visible;display:inline;overflow:visible;enable-background:accumulate"
       sodipodi:type="arc"
       transform="matrix(0.13125298,0,0,0.13125292,-7.4990034,1019.2388)" />
    <path
       sodipodi:type="arc"
       style="color:#000000;fill:#ffffff;fill-opacity:1;fill-rule:nonzero;stroke:none;stroke-width:7;marker:none;visibility:visible;display:inline;overflow:visible;enable-background:accumulate"
       id="path3148-607"
       sodipodi:cx="80"
       sodipodi:cy="229.50504"
       sodipodi:rx="22.857143"
       sodipodi:ry="22.857143"
       d="m 102.85714,229.50504 c 0,12.62365 -10.233488,22.85714 -22.85714,22.85714 -12.623652,0 -22.857143,-10.23349 -22.857143,-22.85714 0,-12.62366 10.233491,-22.85715 22.857143,-22.85715 12.623652,0 22.85714,10.23349 22.85714,22.85715 z"
       transform="matrix(0.13125298,0,0,0.13125292,-7.4990034,1019.2388)" />
    <rect
       style="color:#000000;fill:#ffffff;fill-opacity:1;fill-rule:nonzero;stroke:none;stroke-width:7;marker:none;visibility:visible;display:inline;overflow:visible;enable-background:accumulate"
       id="rect3056"
       width="21.196667"
       height="6.000134"
       x="8.8033333"
       y="1022.3622"
       rx="22.857147"
       ry="22.857147" />
    <rect
       ry="22.857147"
       rx="22.857147"
       y="1022.3622"
       x="8.8033333"
       height="6.000134"
       width="21.196667"
       id="rect3142"
       style="color:#000000;fill:#ffffff;fill-opacity:1;fill-rule:nonzero;stroke:none;stroke-width:7;marker:none;visibility:visible;display:inline;overflow:visible;enable-background:accumulate" />
    <rect
       ry="22.857147"
       rx="22.857147"
       y="1022.3622"
       x="8.8033333"
       height="6.000134"
       width="21.196667"
       id="rect3146"
       style="color:#000000;fill:#ffffff;fill-opacity:1;fill-rule:nonzero;stroke:none;stroke-width:7;marker:none;visibility:visible;display:inline;overflow:visible;enable-background:accumulate" />
    <rect
       style="color:#000000;fill:#ffffff;fill-opacity:1;fill-rule:nonzero;stroke:none;stroke-width:7;marker:none;visibility:visible;display:inline;overflow:visible;enable-background:accumulate"
       id="rect3150"
       width="21.196667"
       height="6.000134"
       x="8.8033333"
       y="1022.3622"
       rx="2.8254974"
       ry="2.8254974" />
    <rect
       style="color:#000000;fill:#ffffff;fill-opacity:1;fill-rule:nonzero;stroke:none;stroke-width:7;marker:none;visibility:visible;display:inline;overflow:visible;enable-background:accumulate"
       id="rect3056-4"
       width="21.196667"
       height="6.000134"
       x="8.7925272"
       y="1034.3623"
       rx="22.857147"
       ry="22.857147" />
    <rect
       ry="22.857147"
       rx="22.857147"
       y="1034.3623"
       x="8.7925272"
       height="6.000134"
       width="21.196667"
       id="rect3142-7"
       style="color:#000000;fill:#ffffff;fill-opacity:1;fill-rule:nonzero;stroke:none;stroke-width:7;marker:none;visibility:visible;display:inline;overflow:visible;enable-background:accumulate" />
    <rect
       ry="22.857147"
       rx="22.857147"
       y="1034.3623"
       x="8.7925272"
       height="6.000134"
       width="21.196667"
       id="rect3146-3"
       style="color:#000000;fill:#ffffff;fill-opacity:1;fill-rule:nonzero;stroke:none;stroke-width:7;marker:none;visibility:visible;display:inline;overflow:visible;enable-background:accumulate" />
    <rect
       style="color:#000000;fill:#ffffff;fill-opacity:1;fill-rule:nonzero;stroke:none;stroke-width:7;marker:none;visibility:visible;display:inline;overflow:visible;enable-background:accumulate"
       id="rect3150-1"
       width="21.196667"
       height="6.000134"
       x="8.7925272"
       y="1034.3623"
       rx="2.8254974"
       ry="2.8254974" />
    <rect
       style="color:#000000;fill:#ffffff;fill-opacity:1;fill-rule:nonzero;stroke:none;stroke-width:7;marker:none;visibility:visible;display:inline;overflow:visible;enable-background:accumulate"
       id="rect3056-41"
       width="21.196667"
       height="6.000134"
       x="8.7931099"
       y="1046.3621"
       rx="22.857147"
       ry="22.857147" />
    <rect
       ry="22.857147"
       rx="22.857147"
       y="1046.3621"
       x="8.7931099"
       height="6.000134"
       width="21.196667"
       id="rect3142-0"
       style="color:#000000;fill:#ffffff;fill-opacity:1;fill-rule:nonzero;stroke:none;stroke-width:7;marker:none;visibility:visible;display:inline;overflow:visible;enable-background:accumulate" />
    <rect
       ry="22.857147"
       rx="22.857147"
       y="1046.3621"
       x="8.7931099"
       height="6.000134"
       width="21.196667"
       id="rect3146-14"
       style="color:#000000;fill:#ffffff;fill-opacity:1;fill-rule:nonzero;stroke:none;stroke-width:7;marker:none;visibility:visible;display:inline;overflow:visible;enable-background:accumulate" />
    <rect
       style="color:#000000;fill:#ffffff;fill-opacity:1;fill-rule:nonzero;stroke:none;stroke-width:7;marker:none;visibility:visible;display:inline;overflow:visible;enable-background:accumulate"
       id="rect3150-17"
       width="21.196667"
       height="6.000134"
       x="8.7931099"
       y="1046.3621"
       rx="2.8254974"
       ry="2.8254974" />
  </g>
</svg>
